<svg width="40" height="40" fill="none" xmlns="http://www.w3.org/2000/svg"><g clip-path="url(#clip0_544_1861)" fill="#313131"><path d="M20.426 9.725c-5.488 0-9.95 4.461-9.953 9.945a9.914 9.914 0 001.521 5.293l.236.376-1.005 3.67 3.766-.987.363.216a9.933 9.933 0 005.064 1.386h.004c5.484 0 9.947-4.462 9.95-9.946a9.885 9.885 0 00-2.912-7.037 9.884 9.884 0 00-7.034-2.916zm5.852 14.221c-.249.698-1.444 1.336-2.018 1.422-.516.077-1.168.109-1.884-.118a17.25 17.25 0 01-1.706-.63c-3-1.296-4.96-4.316-5.109-4.515-.15-.2-1.221-1.622-1.221-3.093 0-1.472.773-2.196 1.047-2.495a1.1 1.1 0 01.797-.374c.2 0 .4.002.573.01.184.01.43-.07.673.514.25.599.848 2.07.923 2.22.074.15.124.324.025.524-.1.2-.57.8-.748 1.022-.132.165-.306.311-.131.61.174.3.775 1.28 1.664 2.072 1.142 1.019 2.106 1.334 2.405 1.484.299.15.473.125.648-.075.174-.2.747-.873.947-1.172.2-.3.399-.25.673-.15s1.744.823 2.044.973c.299.15.498.224.573.35.075.124.075.723-.175 1.421z"/><path d="M37.115 0H2.885A2.885 2.885 0 000 2.885v34.23A2.885 2.885 0 002.885 40h34.23A2.885 2.885 0 0040 37.115V2.885A2.885 2.885 0 0037.115 0zM20.424 31.645h-.005a11.97 11.97 0 01-5.72-1.457l-6.346 1.664 1.698-6.201a11.939 11.939 0 01-1.598-5.982c.003-6.598 5.373-11.966 11.97-11.966a11.894 11.894 0 018.468 3.51 11.893 11.893 0 013.503 8.465c-.003 6.598-5.373 11.967-11.97 11.967z"/></g><defs><clipPath id="clip0_544_1861"><rect width="40" height="40" rx="10" fill="#fff"/></clipPath></defs></svg>