<svg width="24" height="24" fill="none" xmlns="http://www.w3.org/2000/svg"><g clip-path="url(#clip0_359_1598)"><path d="M24 23.468v-8.874c0-4.755-2.538-6.967-5.922-6.967-2.73 0-3.955 1.502-4.636 2.556V7.99H8.296c.069 1.453 0 15.478 0 15.478h5.146v-8.644c0-.461.033-.924.169-1.254.371-.925 1.218-1.882 2.639-1.882 1.862 0 2.606 1.42 2.606 3.5v8.28H24zM2.876 5.878c1.794 0 2.912-1.19 2.912-2.676C5.755 1.684 4.67.53 2.91.53S0 1.684 0 3.202c0 1.486 1.117 2.676 2.844 2.676h.032zm2.573 17.59V7.99H.305v15.478h5.144z" fill="#fff"/></g><defs><clipPath id="clip0_359_1598"><path fill="#fff" d="M0 0h24v24H0z"/></clipPath></defs></svg>