<svg width="24" height="24" fill="none" xmlns="http://www.w3.org/2000/svg"><path d="M23.988 11.993c0 1.682-.034 3.37.01 5.051.072 2.978-1.8 5.279-4.184 6.303a7.573 7.573 0 01-3.004.628c-3.256.005-6.516.049-9.772-.014-2.452-.048-4.47-1.073-5.916-3.093C.362 19.804 0 18.596 0 17.286V6.894C0 4.066 1.379 2.09 3.826.804 4.891.248 6.046.01 7.251.006c3.159 0 6.322-.019 9.481.01 2.453.02 4.499.957 6.008 2.93.842 1.101 1.248 2.367 1.248 3.76v5.287zm-22.203 0v5.317c0 .793.184 1.537.595 2.209 1.079 1.764 2.709 2.625 4.73 2.659 3.247.048 6.497.019 9.748.01.798 0 1.572-.165 2.293-.508 1.964-.938 3.062-2.432 3.052-4.674-.019-3.432-.005-6.864-.005-10.296 0-.971-.275-1.86-.85-2.644-1.113-1.503-2.652-2.242-4.49-2.262-3.24-.038-6.482-.014-9.723-.01-.692 0-1.36.14-2.007.383-1.78.662-3.435 2.339-3.358 4.809.059 1.672.015 3.34.015 5.007z" fill="#fff"/><path d="M12.02 17.115c-3.12 0-5.636-2.484-5.641-5.578-.005-3.045 2.53-5.539 5.63-5.539 3.111-.005 5.636 2.484 5.64 5.554 0 3.064-2.52 5.558-5.63 5.563zm0-1.788c2.123 0 3.845-1.697 3.84-3.785-.005-2.069-1.727-3.76-3.84-3.76-2.124 0-3.856 1.686-3.856 3.77.005 2.088 1.732 3.78 3.855 3.775zm6.285-11.02c.653 0 1.186.555 1.186 1.237-.005.682-.542 1.233-1.195 1.228-.644-.005-1.171-.556-1.171-1.223-.005-.682.527-1.242 1.18-1.242z" fill="#fff"/></svg>