<svg width="239" height="132" fill="none" xmlns="http://www.w3.org/2000/svg"><g filter="url(#filter0_d_408_2982)"><mask id="a" fill="#fff"><path fill-rule="evenodd" clip-rule="evenodd" d="M15 92c0 5.523 4.477 10 10 10h164c5.523 0 10-4.477 10-10V38.5a7.04 7.04 0 017.019-6.5H219a5 5 0 005-5V5a5 5 0 00-5-5h-22a5 5 0 00-5 5v12.5a6.513 6.513 0 01-6.108 6.5H25c-5.523 0-10 4.477-10 10v58z"/></mask><path d="M199 38.5h-1v-.038l.003-.039.997.077zM185.892 24l.061.998-.031.002h-.03v-1zM25 103c-6.075 0-11-4.925-11-11h2a9 9 0 009 9v2zm164 0H25v-2h164v2zm11-11c0 6.075-4.925 11-11 11v-2a9 9 0 009-9h2zm0-53.5V92h-2V38.5h2zm-1.997-.077A8.04 8.04 0 01206.019 31v2a6.04 6.04 0 00-6.022 5.577l-1.994-.154zM206.019 31h1.481v2h-1.481v-2zM219 33h-11.5v-2H219v2zm6-6a6 6 0 01-6 6v-2a4 4 0 004-4h2zm0-22v22h-2V5h2zm-6-6a6 6 0 016 6h-2a4 4 0 00-4-4v-2zm-22 0h22v2h-22v-2zm-6 6a6 6 0 016-6v2a4 4 0 00-4 4h-2zm0 12.5V5h2v12.5h-2zm2 0a7.512 7.512 0 01-7.047 7.498l-.122-1.996A5.512 5.512 0 00191 17.5h2zm-8 5.5h.892v2H185v-2zM25 23h160v2H25v-2zM14 34c0-6.075 4.925-11 11-11v2a9 9 0 00-9 9h-2zm0 58V34h2v58h-2z" fill="#999" mask="url(#a)"/></g><defs><filter id="filter0_d_408_2982" x="0" y="0" width="239" height="132" filterUnits="userSpaceOnUse" color-interpolation-filters="sRGB"><feFlood flood-opacity="0" result="BackgroundImageFix"/><feColorMatrix in="SourceAlpha" values="0 0 0 0 0 0 0 0 0 0 0 0 0 0 0 0 0 0 127 0" result="hardAlpha"/><feOffset dy="15"/><feGaussianBlur stdDeviation="7.5"/><feComposite in2="hardAlpha" operator="out"/><feColorMatrix values="0 0 0 0 0 0 0 0 0 0 0 0 0 0 0 0 0 0 0.1 0"/><feBlend in2="BackgroundImageFix" result="effect1_dropShadow_408_2982"/><feBlend in="SourceGraphic" in2="effect1_dropShadow_408_2982" result="shape"/></filter></defs></svg>