<svg width="246" height="134" fill="none" xmlns="http://www.w3.org/2000/svg"><g filter="url(#filter0_d_408_2808)"><mask id="a" fill="#fff"><path fill-rule="evenodd" clip-rule="evenodd" d="M231 94c0 5.523-4.477 10-10 10H50c-5.523 0-10-4.477-10-10V38.5a7.04 7.04 0 00-7.02-6.5H20a5 5 0 01-5-5V5a5 5 0 015-5h22a5 5 0 015 5v12.5a6.513 6.513 0 006.108 6.5H221c5.523 0 10 4.477 10 10v60z"/></mask><path d="M40 38.5h1v-.038l-.003-.039L40 38.5zM53.108 24l-.06.998.03.002h.03v-1zM221 105c6.075 0 11-4.925 11-11h-2a9 9 0 01-9 9v2zm-171 0h171v-2H50v2zM39 94c0 6.075 4.925 11 11 11v-2a9 9 0 01-9-9h-2zm0-55.5V94h2V38.5h-2zm1.997-.077A8.04 8.04 0 0032.981 31v2a6.04 6.04 0 016.022 5.577l1.994-.154zM32.981 31H31.5v2h1.48v-2zM20 33h11.5v-2H20v2zm-6-6a6 6 0 006 6v-2a4 4 0 01-4-4h-2zm0-22v22h2V5h-2zm6-6a6 6 0 00-6 6h2a4 4 0 014-4v-2zm22 0H20v2h22v-2zm6 6a6 6 0 00-6-6v2a4 4 0 014 4h2zm0 12.5V5h-2v12.5h2zm-2 0a7.513 7.513 0 007.047 7.498l.122-1.996A5.513 5.513 0 0148 17.5h-2zm8 5.5h-.892v2H54v-2zm167 0H54v2h167v-2zm11 11c0-6.075-4.925-11-11-11v2a9 9 0 019 9h2zm0 60V34h-2v60h2z" fill="#999" mask="url(#a)"/></g><defs><filter id="filter0_d_408_2808" x="0" y="0" width="246" height="134" filterUnits="userSpaceOnUse" color-interpolation-filters="sRGB"><feFlood flood-opacity="0" result="BackgroundImageFix"/><feColorMatrix in="SourceAlpha" values="0 0 0 0 0 0 0 0 0 0 0 0 0 0 0 0 0 0 127 0" result="hardAlpha"/><feOffset dy="15"/><feGaussianBlur stdDeviation="7.5"/><feComposite in2="hardAlpha" operator="out"/><feColorMatrix values="0 0 0 0 0 0 0 0 0 0 0 0 0 0 0 0 0 0 0.1 0"/><feBlend in2="BackgroundImageFix" result="effect1_dropShadow_408_2808"/><feBlend in="SourceGraphic" in2="effect1_dropShadow_408_2808" result="shape"/></filter></defs></svg>