<svg viewBox="0 0 1568 1600" width="1280" height="1280" xmlns="http://www.w3.org/2000/svg"><path d="M1 50c2.17.506 4 1 6 2l-.188 2.56c.184 3.38 1.02 5.54 2.39 8.59 1.21 2.79 2.12 5.65 3.05 8.54.437 1.32.874 2.65 1.31 3.97l.703 2.12c.242.732.485 1.46.734 2.22l.766 2.32c5.53 16.6 12.2 32.6 20.7 48 4.51 8.15 4.51 8.15 4.51 10.7l3 1c.667 2.33 1.33 4.67 2 7l3 1c1.04 1.64 2.03 3.31 3 5 .943 1.3 1.9 2.59 2.88 3.88 8.12 10.7 8.12 10.7 8.12 13.1h2c1.51 1.68 1.51 1.68 3.12 3.88.539.719 1.08 1.44 1.63 2.18 1.24 1.95 1.24 1.95 1.24 3.95l1.79.762c2.49 1.39 3.84 2.86 5.65 5.05 3.53 4.16 7.06 8.02 11.4 11.4l2.19 1.81v2h2c1.69 1.65 3.35 3.31 5 5l2 1v2l2 .625c4.37 2 9.79 4.95 12 9.38l2.25.875c2.75 1.12 2.75 1.12 5 2.94 3 2.38 6.08 4.09 9.44 5.91 2.1 1.17 4.11 2.41 6.12 3.72 8.62 5.45 18.1 9.5 27.4 13.8 2.06.95 4.08 1.94 6.08 3 6.57 3.45 13.2 5.75 20.3 7.81 1.74.512 1.74.512 3.52 1.03 11.1 3.17 22.3 5.49 33.6 7.52 1.46.281 2.92.604 4.36.985 2.09.493 4.03.651 6.18.742l2.38.113 4.93.211 2.38.113 2.16.092c1.93.189 1.93.189 4.93 1.19 1.76.094 3.52.129 5.28.13l3.35.012 3.7-.003 3.93.009c3.62.007 7.25.009 10.9.01 3.93.001 7.86.009 11.8.015 6.9.012 13.8.019 20.7.024 10.3.007 20.5.02 30.8.035 17.3.023 34.5.043 51.8.06a182756.579 182756.579 0 0154.52.06l16.2.02c38.2.047 76.4.09 115 .13 37.1.04 74.3.081 111 .125l3.47.005a3967508.487 3967508.487 0 01104.7.124l3.26.004c71.9.085 144 .163 216 .24l1 3 2-1c2.8-.1 5.57-.141 8.38-.125l2.45.01c17.7.152 17.7.152 22.2 3.11 2.45.204 2.45.204 5.06.063 4.74-.16 4.74-.16 6.94.938v2l2-1c5.64-.587 9.51.76 14.7 3.03 3.67 1.53 7.44 2.22 11.3 2.97v2c.598-.186 1.2-.371 1.81-.562 2.19-.438 2.19-.438 5.19.562v2l3-1v2l3-1 2 1v2h5v2l2.25-.125c2.87.13 4.3.69 6.75 2.12l2 1v2h5v2c1.08.186 1.08.186 2.19.375 2.77.615 5.21 1.51 7.81 2.62v2l1.69.375c2.53.685 4.89 1.62 7.31 2.62v2h2v2h5v2l4 1v2h3v2h3v2l4 1v2h2v2h5v3h2v2h3v2l1.81.375c2.19.625 2.19.625 5.19 2.62v2h2v2l1.81.375c2.19.625 2.19.625 5.19 2.62v2h2v2l3 1v2h2v2h2v2h3v3h2v2h3v2h2v3h2v2h2c1.62 1.25 1.62 1.25 3 3v4h2v2l3 1v2h2c3 4.38 3 4.38 3 7h2v2h2v3h2c3 4.38 3 4.38 3 7h2v4h2v3h2l1 4h2v5h2l1 5h2v3h2v4h2l1 7h2v4h2v5h2l1 5h2v7h2v5h2l1 7h2v7h2l.402 1.86.535 2.45.527 2.43c.534 2.41.534 2.41 1.54 5.26.04 2.33.044 4.67 0 7h2l.184 2.37.254 3.07.246 3.06c.049 2.44.049 2.44 1.32 3.5.378 2.58.708 5.16 1 7.75.556 5.26.556 5.26 1.53 10.5.646 3.79.598 7.54.573 11.4l-.004 2.47a2851.3 2851.3 0 01-.031 7.76l-.014 5.28c-.01 4.3-.028 8.61-.049 12.9h2v602h-2v114h2a26554.478 26554.478 0 00.34 33.11c.055 5.13.109 10.3.158 15.4.047 4.95.1 9.89.156 14.8.02 1.89.039 3.78.056 5.67.024 2.64.054 5.28.085 7.92l.018 2.39c-.027 3.95-.027 3.95 1.19 7.64.23 2.37.41 4.75.562 7.12l.254 3.88c.09 1.48.09 1.48.184 2.99h2v12h2v11h2l.402 1.93.535 2.5c.26 1.24.26 1.24.527 2.5.343 2.04.343 2.04 1.54 3.07.04 2.33.042 4.67 0 7h2v5h2l1 7h2v5h2c3 6.5 3 6.5 3 11h2v5h2c2.43 3.37 3 4.73 3 9h2v3h2v4h2l1 5h2v3h2l1 4h2v3h2v4h2c1.62 1.25 1.62 1.25 3 3v4h2l2 5h3v3h2l1 4h2v2h2v3h2v2h3v2h2v3h2v2h3v3h2v2h2v2h3v3h2v2h3v2h2v2l4 1v2c1.14.402 1.14.402 2.31.812 2.58 1.14 3.96 2 5.69 4.19v2h4v2l3 1v2l1.69.312c2.79.829 4.93 2.03 7.31 3.69v2l5 1v2h4c1.75 1.37 1.75 1.37 3 3v2h4v2l2.38-.125c2.62.125 2.62.125 4.62 2.12l3 1v2h3v2l2.06.375c4.87 1.04 9.57 2.18 13.9 4.62v2c3.85 1.01 7.74 1.7 11.7 2.4 2.34.598 2.34.598 5.34 2.6v2l1.75-.562c2.46-.478 3.89-.195 6.25.562v2h8l1 3 2.69-.625c3.7-.42 4.98.119 8.31 1.62 2.65.739 5.32 1.36 8 2v2l2.38-.562c2.62-.438 2.62-.438 4.62.562v2h-1268l-1-2c-2.48-.8-2.48-.8-5.5-1.4-1.13-.251-2.27-.501-3.44-.76l-3.62-.775c-7.4-1.6-14.4-3.3-21.4-6.06-2.57-.577-2.57-.577-5-.875-10.7-1.79-20.9-5.35-30.6-10-2.1-.99-4.19-1.83-6.38-2.62-4.24-1.53-8.3-3.42-12.4-5.31-2.1-.963-4.22-1.87-6.36-2.75-3.59-1.59-6.87-3.44-10.2-5.44v-2l-3.19-.75c-3.7-.87-5.9-2.87-8.81-5.25-2.9-1.85-5.83-3.63-8.77-5.41l-2.23-1.59v-2c-1.08-.373-1.08-.373-2.19-.754-3.08-1.37-5.24-3.02-7.81-5.18-3.21-2.68-6.39-4.95-10-7.06-1.81-1.56-1.81-1.56-3-3v-2l-1.75-.793c-2.38-1.28-4.17-2.72-6.18-4.52l-1.96-1.74c-5.1-4.74-9.48-9.79-13.8-15.2-2.27-2.79-2.27-2.79-4.98-5.42-2.07-2.07-3.21-3.62-4.3-6.3h-2v-3l-3-1c-1.32-1.46-1.32-1.46-2.69-3.38-.522-.727-1.04-1.45-1.58-2.2-.571-.8-1.14-1.6-1.73-2.42-.623-.82-1.25-1.64-1.89-2.48-5.4-7.18-9.77-14.7-14.1-22.5-2.23-3.97-4.54-7.86-7-11.7-2.79-4.62-4.48-9.23-6.07-14.4-1.68-5.33-3.83-10.5-6.11-15.6-6.33-14.4-9.46-29.7-12.4-45.1-.4-2.06-.842-4.1-1.29-6.15-4.88-22.4-4.45-45-4.41-67.8.006-4.86 0-9.73-.004-14.6-.006-8.51-.004-17 .002-25.5.01-12.7.009-25.3.005-38-.007-21.3-.003-42.6.005-63.9.009-21.1.014-42.1.014-63.2v-66.63c.002-21.6.006-43.2.012-64.7v-2.12l.011-34.1a417352.525 417352.525 0 00.02-171.27c-.001-37.8.003-75.6.01-113v-3.99l.003-15.9c.003-18.5.005-36.9.005-55.4 0-23.8.005-47.5.015-71.3.005-12.6.007-25.1.006-37.7-.001-8.39.002-16.8.008-25.2.003-4.79.005-9.57.002-14.4-.002-4.35 0-8.7.006-13.1 0-1.57 0-3.13-.002-4.7-.003-2.12 0-4.25.006-6.37v-3.57c.132-3.51.59-6.89 1.13-10.4.083-1.74.127-3.47.127-5.21l.008-2.98-.007-3.22.004-3.47c.004-3.83.001-7.66-.002-11.5l.005-8.24c.005-6.68.004-13.4.001-20.1-.002-5.43-.003-10.9-.001-16.3v-2.34l.001-4.72c.003-14.7 0-29.5-.006-44.2-.004-12.6-.003-25.3.001-37.9a76991.69 76991.69 0 00.004-48.8v-2.34c-.002-5.43 0-10.9.002-16.3.003-6.61.002-13.2-.003-19.8-.003-3.37-.003-6.75 0-10.1.002-3.66-.001-7.32-.006-11l.007-3.22c-.015-5.54-.337-10.8-1.13-16.3a194.69 194.69 0 01-.281-5.86L4.21 79.2l-.105-3.26c.39-13.2.39-13.2-2.5-25.7zm5 41v5h1v-5H6zm0 285l1 3zm0 958l1 3zm10 59l1 2zm16 44l1 2z" fill="#FBFCFE"/><path d="M232 1594l3 1zm-17-5l3 1z" fill="#000100"/><path d="M1090 283l3 1z" fill="#FCFDFF"/><path d="M243 1596l2 1zm-44-11l2 1z" fill="#000100"/><path d="M1467 1582l2 1z" fill="#FCFDFF"/><path d="M173 1575l2 1zm-40-21l2 1z" fill="#000100"/></svg>