<svg width="32" height="32" fill="none" xmlns="http://www.w3.org/2000/svg"><path d="M26 12.667v-2.133c0-1.12 0-1.68-.218-2.108a2 2 0 00-.874-.874c-.428-.218-.988-.218-2.108-.218H9.2c-1.12 0-1.68 0-2.108.218a2 2 0 00-.874.874C6 8.854 6 9.414 6 10.534v2.133m20 0v10.134c0 1.12 0 1.68-.218 2.108a2 2 0 01-.874.874C24.48 26 23.92 26 22.8 26H9.2c-1.12 0-1.68 0-2.108-.218a2 2 0 01-.874-.874C6 24.48 6 23.92 6 22.8V12.667m20 0H6" stroke="#fff" stroke-width="2"/><path d="M11.332 4.666v5.333m9.333-5.333v5.333M16 22.666v-6.667m3.332 3.335h-6.667" stroke="#fff" stroke-width="2" stroke-linecap="round"/></svg>