<svg width="48" height="32" fill="none" xmlns="http://www.w3.org/2000/svg"><path d="M15.714 2.832c0-1.564 1.28-2.832 2.857-2.832H30c.84 0 1.595.36 2.118.93L47.06 15.743c.577.518.939 1.266.939 2.099v11.327C48 30.732 46.72 32 45.143 32H33.714a2.86 2.86 0 01-2.228-1.06L19.184 18.749c-.762-.569-1.895-.096-1.984.88l-.057.62v8.92c0 1.564-1.28 2.832-2.857 2.832H2.857C1.28 32 0 30.732 0 29.168V17.841c0-1.564 1.28-2.832 2.857-2.832h9.714c1.677 0 3.056-1.31 3.125-2.971l.018-.427V2.83z" fill="#101010"/></svg>