<svg width="279" height="66" fill="none" xmlns="http://www.w3.org/2000/svg"><path d="M77.182 53.37c-.84 0-1.594-.143-2.265-.43-.671-.298-1.198-.716-1.582-1.253-.383-.537-.575-1.163-.575-1.879h2.193c.048.537.257.978.629 1.325.384.345.917.518 1.6.518.707 0 1.258-.167 1.654-.5.395-.347.593-.788.593-1.325 0-.418-.126-.758-.378-1.02a2.373 2.373 0 00-.916-.609c-.36-.143-.863-.298-1.51-.465-.815-.215-1.48-.43-1.996-.645a3.373 3.373 0 01-1.294-1.038c-.36-.465-.54-1.085-.54-1.861 0-.716.18-1.343.54-1.88.36-.536.863-.948 1.51-1.234.647-.287 1.396-.43 2.247-.43 1.21 0 2.199.304 2.966.913.779.596 1.21 1.42 1.294 2.47h-2.265c-.036-.454-.251-.841-.647-1.164-.395-.322-.917-.483-1.564-.483-.587 0-1.066.15-1.438.448-.371.298-.557.727-.557 1.288 0 .382.114.698.341.949.24.239.54.43.9.573.359.143.85.298 1.473.465.827.227 1.498.453 2.014.68.527.227.97.579 1.33 1.056.371.465.557 1.092.557 1.88a3.34 3.34 0 01-.521 1.79c-.336.56-.833 1.014-1.492 1.36-.647.334-1.414.5-2.301.5zm15.468-8.86c0 .633-.15 1.23-.45 1.79-.299.56-.778 1.02-1.437 1.378-.66.346-1.504.52-2.535.52h-2.265v5.047h-2.049v-12.44h4.314c.959 0 1.768.167 2.427.501.671.323 1.168.764 1.492 1.325a3.59 3.59 0 01.503 1.88zm-4.422 2.023c.78 0 1.36-.173 1.744-.52.383-.357.575-.858.575-1.503 0-1.36-.773-2.04-2.319-2.04h-2.265v4.063h2.265zm8.426-4.081v3.65h4.314v1.665h-4.314v3.813h4.853v1.664h-6.903V40.787h6.903v1.665h-4.853zm6.695 4.546c0-1.217.282-2.309.845-3.275a6.08 6.08 0 012.319-2.256 6.485 6.485 0 013.217-.823c1.33 0 2.511.328 3.541.984 1.043.645 1.798 1.564 2.266 2.757h-2.463c-.324-.657-.773-1.146-1.348-1.468-.575-.322-1.241-.483-1.996-.483-.827 0-1.564.185-2.211.555-.647.37-1.156.9-1.528 1.593-.359.692-.539 1.497-.539 2.416 0 .919.18 1.724.539 2.416a4.056 4.056 0 001.528 1.611c.647.37 1.384.555 2.211.555.755 0 1.421-.161 1.996-.483.575-.322 1.024-.812 1.348-1.468h2.463c-.468 1.193-1.223 2.112-2.266 2.756-1.03.645-2.211.967-3.541.967-1.174 0-2.247-.269-3.217-.806a6.216 6.216 0 01-2.319-2.273c-.563-.966-.845-2.058-.845-3.275zm22.656-6.193v1.665h-3.325v10.775h-2.049V42.47h-3.344v-1.665h8.718zm7.775 12.565a6.602 6.602 0 01-3.218-.806 6.224 6.224 0 01-2.319-2.273c-.563-.978-.845-2.076-.845-3.293s.282-2.309.845-3.275a6.088 6.088 0 012.319-2.256 6.488 6.488 0 013.218-.823c1.174 0 2.247.275 3.218.823a5.921 5.921 0 012.318 2.256c.564.966.845 2.058.845 3.275s-.281 2.315-.845 3.293a6.05 6.05 0 01-2.318 2.273c-.971.537-2.044.806-3.218.806zm0-1.772c.827 0 1.564-.185 2.211-.555a3.934 3.934 0 001.51-1.61c.371-.705.557-1.516.557-2.435s-.186-1.724-.557-2.416a3.815 3.815 0 00-1.51-1.593c-.647-.37-1.384-.555-2.211-.555s-1.564.185-2.211.555a3.92 3.92 0 00-1.528 1.593c-.36.692-.539 1.497-.539 2.416 0 .919.179 1.73.539 2.434a4.049 4.049 0 001.528 1.611c.647.37 1.384.555 2.211.555zm14.887 1.647l-2.876-4.976h-1.564v4.976h-2.049v-12.44h4.314c.959 0 1.768.167 2.427.501.671.334 1.168.782 1.492 1.343.335.56.503 1.187.503 1.879 0 .811-.24 1.551-.719 2.22-.467.656-1.192 1.103-2.175 1.342l3.092 5.154h-2.445zm-4.44-6.605h2.265c.767 0 1.342-.19 1.726-.573.395-.382.593-.895.593-1.539 0-.644-.192-1.145-.575-1.503-.384-.37-.965-.555-1.744-.555h-2.265v4.17zm18.094 6.73c-.838 0-1.593-.143-2.264-.43-.672-.298-1.199-.716-1.582-1.253-.384-.537-.576-1.163-.576-1.879h2.193c.048.537.258.978.63 1.325.383.345.916.518 1.599.518.708 0 1.259-.167 1.654-.5a1.68 1.68 0 00.593-1.325c0-.418-.125-.758-.377-1.02a2.372 2.372 0 00-.917-.609 13.18 13.18 0 00-1.51-.465c-.815-.215-1.48-.43-1.995-.645a3.371 3.371 0 01-1.294-1.038c-.36-.465-.54-1.085-.54-1.861 0-.716.18-1.343.54-1.88.359-.536.862-.948 1.51-1.234.647-.287 1.396-.43 2.247-.43 1.21 0 2.199.304 2.966.913.779.596 1.21 1.42 1.294 2.47h-2.265c-.036-.454-.252-.841-.647-1.164-.396-.322-.917-.483-1.564-.483-.587 0-1.067.15-1.438.448-.372.298-.557.727-.557 1.288 0 .382.113.698.341.949.24.239.539.43.899.573.359.143.851.298 1.474.465.827.227 1.498.453 2.013.68.527.227.971.579 1.33 1.056.372.465.558 1.092.558 1.88 0 .632-.174 1.228-.522 1.79-.335.56-.833 1.014-1.492 1.36-.647.334-1.414.5-2.301.5zm12.432 0a6.602 6.602 0 01-3.218-.806 6.216 6.216 0 01-2.319-2.273c-.564-.978-.845-2.076-.845-3.293s.281-2.309.845-3.275a6.08 6.08 0 012.319-2.256 6.488 6.488 0 013.218-.823c1.174 0 2.246.275 3.217.823a5.917 5.917 0 012.319 2.256c.563.966.845 2.058.845 3.275s-.282 2.315-.845 3.293a6.046 6.046 0 01-2.319 2.273c-.971.537-2.043.806-3.217.806zm0-1.772c.826 0 1.563-.185 2.211-.555a3.925 3.925 0 001.509-1.61c.372-.705.557-1.516.557-2.435s-.185-1.724-.557-2.416a3.807 3.807 0 00-1.509-1.593c-.648-.37-1.385-.555-2.211-.555-.827 0-1.565.185-2.212.555-.647.37-1.156.9-1.527 1.593-.36.692-.54 1.497-.54 2.416 0 .919.18 1.73.54 2.434.371.692.88 1.23 1.527 1.611.647.37 1.385.555 2.212.555zm10.446 0h4.224v1.647h-6.274v-12.44h2.05v10.793zm7.969-10.793v7.93c0 .942.246 1.652.737 2.129.504.477 1.199.716 2.086.716.898 0 1.593-.239 2.085-.716.503-.477.755-1.187.755-2.13v-7.929h2.049v7.893c0 1.015-.222 1.874-.665 2.578a4.126 4.126 0 01-1.78 1.575c-.743.346-1.564.519-2.462.519-.899 0-1.72-.173-2.463-.52a4.037 4.037 0 01-1.744-1.574c-.431-.704-.647-1.563-.647-2.578v-7.893h2.049zm18.452 0v1.665h-3.326v10.775h-2.049V42.47h-3.344v-1.665h8.719zm4.124 0v12.44h-2.05v-12.44h2.05zm8.388 12.565a6.598 6.598 0 01-3.217-.806 6.216 6.216 0 01-2.319-2.273c-.563-.978-.845-2.076-.845-3.293s.282-2.309.845-3.275a6.08 6.08 0 012.319-2.256 6.485 6.485 0 013.217-.823c1.175 0 2.247.275 3.218.823a5.917 5.917 0 012.319 2.256c.563.966.845 2.058.845 3.275s-.282 2.315-.845 3.293a6.046 6.046 0 01-2.319 2.273c-.971.537-2.043.806-3.218.806zm0-1.772c.827 0 1.564-.185 2.211-.555a3.92 3.92 0 001.51-1.61c.372-.705.558-1.516.558-2.435s-.186-1.724-.558-2.416a3.803 3.803 0 00-1.51-1.593c-.647-.37-1.384-.555-2.211-.555-.826 0-1.564.185-2.211.555-.647.37-1.156.9-1.528 1.593-.359.692-.539 1.497-.539 2.416 0 .919.18 1.73.539 2.434a4.056 4.056 0 001.528 1.611c.647.37 1.385.555 2.211.555zm18.663 1.646h-2.049l-6.166-9.289v9.29h-2.049V40.786h2.049l6.166 9.271v-9.27h2.049v12.456zm6.808.126c-.839 0-1.594-.143-2.265-.43-.671-.298-1.199-.716-1.582-1.253-.384-.537-.575-1.163-.575-1.879h2.193c.048.537.257.978.629 1.325.383.345.917.518 1.6.518.707 0 1.258-.167 1.653-.5a1.68 1.68 0 00.594-1.325c0-.418-.126-.758-.378-1.02a2.365 2.365 0 00-.917-.609 13.116 13.116 0 00-1.51-.465c-.814-.215-1.48-.43-1.995-.645a3.371 3.371 0 01-1.294-1.038c-.36-.465-.539-1.085-.539-1.861 0-.716.179-1.343.539-1.88.359-.536.863-.948 1.51-1.234.647-.287 1.396-.43 2.247-.43 1.21 0 2.199.304 2.966.913.779.596 1.21 1.42 1.294 2.47h-2.265c-.036-.454-.252-.841-.647-1.164-.395-.322-.917-.483-1.564-.483-.587 0-1.066.15-1.438.448-.371.298-.557.727-.557 1.288 0 .382.114.698.341.949.24.239.54.43.899.573.36.143.851.298 1.474.465.827.227 1.498.453 2.013.68a3.26 3.26 0 011.331 1.056c.371.465.557 1.092.557 1.88a3.35 3.35 0 01-.521 1.79c-.336.56-.833 1.014-1.492 1.36-.648.334-1.414.5-2.301.5z" fill="#000"/><path d="M28.042 23.92A2.918 2.918 0 0130.958 21h11.667c.857 0 1.628.37 2.162.96L60.04 37.234a2.91 2.91 0 01.959 2.164V51.08A2.918 2.918 0 0158.083 54H46.417a2.91 2.91 0 01-2.275-1.092L31.584 40.334c-.779-.587-1.935-.1-2.026.907l-.058.64v9.199A2.919 2.919 0 0126.583 54H14.917A2.918 2.918 0 0112 51.08V39.398a2.918 2.918 0 012.917-2.92h9.916a3.195 3.195 0 003.19-3.064l.019-.44V23.92z" fill="#101010"/></svg>