<svg width="397" height="94" fill="none" xmlns="http://www.w3.org/2000/svg"><path d="M128.323 76.012c-1.193 0-2.268-.204-3.223-.612-.955-.425-1.705-1.02-2.251-1.785-.545-.764-.818-1.656-.818-2.676h3.12c.069.765.367 1.393.896 1.886.545.493 1.304.74 2.276.74 1.006 0 1.791-.238 2.353-.714.563-.493.845-1.122.845-1.887 0-.594-.18-1.079-.538-1.453a3.38 3.38 0 00-1.304-.866c-.512-.204-1.228-.425-2.149-.663-1.159-.306-2.106-.612-2.839-.918a4.807 4.807 0 01-1.842-1.478c-.511-.663-.767-1.547-.767-2.651 0-1.02.256-1.912.767-2.677.512-.765 1.228-1.351 2.149-1.759.921-.408 1.987-.612 3.197-.612 1.723 0 3.129.434 4.221 1.3 1.108.85 1.722 2.023 1.841 3.518h-3.222c-.052-.646-.359-1.198-.921-1.657-.563-.459-1.305-.688-2.226-.688-.835 0-1.517.212-2.046.637-.529.425-.793 1.037-.793 1.836 0 .543.162.994.486 1.35.341.34.767.612 1.279.816.512.204 1.211.425 2.098.663 1.176.323 2.131.646 2.864.969a4.625 4.625 0 011.893 1.504c.529.663.793 1.555.793 2.676 0 .901-.247 1.75-.742 2.55-.477.798-1.185 1.444-2.123 1.937-.921.476-2.012.714-3.274.714zm22.011-12.619c0 .9-.213 1.75-.639 2.55-.427.798-1.109 1.452-2.047 1.962-.938.493-2.14.74-3.606.74h-3.223v7.188h-2.916V58.116h6.139c1.364 0 2.515.238 3.453.714.955.459 1.662 1.088 2.123 1.886.477.8.716 1.691.716 2.677zm-6.292 2.88c1.108 0 1.935-.246 2.481-.739.546-.51.818-1.223.818-2.141 0-1.937-1.1-2.906-3.299-2.906h-3.223v5.786h3.223zm11.989-5.811v5.2h6.139v2.37h-6.139v5.43h6.906v2.37h-9.822v-17.74h9.822v2.37h-6.906zm9.525 6.475c0-1.734.402-3.289 1.203-4.665a8.669 8.669 0 013.3-3.212c1.398-.782 2.924-1.173 4.578-1.173 1.893 0 3.572.468 5.039 1.402 1.483.918 2.558 2.227 3.223 3.926h-3.505c-.46-.935-1.099-1.632-1.917-2.09-.819-.46-1.766-.689-2.84-.689-1.177 0-2.225.264-3.146.79-.921.527-1.645 1.284-2.174 2.27-.512.985-.767 2.132-.767 3.44 0 1.31.255 2.456.767 3.442.529.986 1.253 1.75 2.174 2.294.921.527 1.969.79 3.146.79 1.074 0 2.021-.229 2.84-.688.818-.459 1.457-1.155 1.917-2.09h3.505c-.665 1.7-1.74 3.008-3.223 3.926-1.467.917-3.146 1.376-5.039 1.376-1.671 0-3.197-.382-4.578-1.147a8.86 8.86 0 01-3.3-3.237c-.801-1.377-1.203-2.932-1.203-4.665zm32.241-8.821v2.37h-4.732v15.347h-2.916V60.487h-4.758v-2.37h12.406zm11.061 17.896c-1.654 0-3.18-.383-4.578-1.147a8.853 8.853 0 01-3.3-3.238c-.801-1.393-1.202-2.957-1.202-4.69 0-1.734.401-3.289 1.202-4.665a8.662 8.662 0 013.3-3.212c1.398-.782 2.924-1.173 4.578-1.173 1.671 0 3.198.391 4.579 1.173a8.428 8.428 0 013.299 3.212c.802 1.376 1.203 2.931 1.203 4.665 0 1.733-.401 3.297-1.203 4.69a8.61 8.61 0 01-3.299 3.238c-1.381.764-2.908 1.147-4.579 1.147zm0-2.524c1.177 0 2.226-.263 3.146-.79.921-.544 1.637-1.309 2.149-2.294.529-1.003.793-2.159.793-3.467 0-1.309-.264-2.456-.793-3.442-.512-.985-1.228-1.742-2.149-2.268-.92-.527-1.969-.79-3.146-.79-1.176 0-2.225.263-3.146.79-.921.526-1.646 1.283-2.174 2.268-.512.986-.767 2.133-.767 3.442 0 1.308.255 2.464.767 3.466.528.986 1.253 1.751 2.174 2.295.921.527 1.97.79 3.146.79zm21.184 2.345l-4.093-7.087h-2.225v7.087h-2.916V58.116h6.139c1.364 0 2.515.238 3.453.714.955.476 1.663 1.113 2.123 1.912.478.799.716 1.69.716 2.676 0 1.156-.341 2.21-1.023 3.161-.665.935-1.696 1.572-3.095 1.912l4.4 7.342h-3.479zm-6.318-9.407h3.223c1.091 0 1.91-.272 2.456-.815.562-.544.844-1.275.844-2.193 0-.917-.273-1.631-.819-2.14-.545-.528-1.373-.791-2.481-.791h-3.223v5.94zm25.748 9.586c-1.194 0-2.268-.204-3.223-.612-.955-.425-1.706-1.02-2.251-1.785-.546-.764-.819-1.656-.819-2.676h3.121c.068.765.366 1.393.895 1.886.546.493 1.305.74 2.277.74 1.006 0 1.79-.238 2.353-.714.563-.493.844-1.122.844-1.887 0-.594-.179-1.079-.537-1.453a3.376 3.376 0 00-1.305-.866c-.511-.204-1.228-.425-2.148-.663-1.16-.306-2.106-.612-2.84-.918a4.797 4.797 0 01-1.841-1.478c-.512-.663-.768-1.547-.768-2.651 0-1.02.256-1.912.768-2.677.511-.765 1.228-1.351 2.148-1.759.921-.408 1.987-.612 3.198-.612 1.722 0 3.129.434 4.22 1.3 1.109.85 1.722 2.023 1.842 3.518h-3.223c-.051-.646-.358-1.198-.921-1.657-.563-.459-1.304-.688-2.225-.688-.836 0-1.518.212-2.047.637-.528.425-.792 1.037-.792 1.836 0 .543.162.994.486 1.35.341.34.767.612 1.278.816.512.204 1.211.425 2.098.663 1.177.323 2.131.646 2.865.969.75.323 1.381.824 1.892 1.504.529.663.793 1.555.793 2.676a4.77 4.77 0 01-.741 2.55c-.478.798-1.185 1.444-2.123 1.937-.921.476-2.013.714-3.274.714zm17.688 0c-1.654 0-3.181-.383-4.579-1.147a8.86 8.86 0 01-3.3-3.238c-.801-1.393-1.202-2.957-1.202-4.69 0-1.734.401-3.289 1.202-4.665a8.669 8.669 0 013.3-3.212c1.398-.782 2.925-1.173 4.579-1.173 1.671 0 3.197.391 4.578 1.173a8.437 8.437 0 013.3 3.212c.801 1.376 1.202 2.931 1.202 4.665 0 1.733-.401 3.297-1.202 4.69a8.619 8.619 0 01-3.3 3.238c-1.381.764-2.907 1.147-4.578 1.147zm0-2.524c1.176 0 2.225-.263 3.146-.79.921-.544 1.636-1.309 2.148-2.294.529-1.003.793-2.159.793-3.467 0-1.309-.264-2.456-.793-3.442-.512-.985-1.227-1.742-2.148-2.268-.921-.527-1.97-.79-3.146-.79-1.177 0-2.226.263-3.147.79-.921.526-1.645 1.283-2.174 2.268-.511.986-.767 2.133-.767 3.442 0 1.308.256 2.464.767 3.466.529.986 1.253 1.751 2.174 2.295.921.527 1.97.79 3.147.79zm14.865 0h6.011v2.345h-8.927V58.116h2.916v15.372zm11.34-15.372V69.41c0 1.342.35 2.354 1.049 3.033.716.68 1.705 1.02 2.967 1.02 1.279 0 2.268-.34 2.967-1.02.716-.68 1.074-1.69 1.074-3.033V58.116h2.916v11.242c0 1.444-.315 2.668-.946 3.67a5.865 5.865 0 01-2.533 2.244c-1.057.493-2.225.74-3.504.74s-2.447-.247-3.504-.74a5.741 5.741 0 01-2.481-2.243c-.614-1.003-.921-2.227-.921-3.671V58.116h2.916zm26.255 0v2.37h-4.732v15.347h-2.916V60.487h-4.758v-2.37h12.406zm5.869 0v17.717h-2.916V58.116h2.916zm11.936 17.896c-1.654 0-3.18-.383-4.578-1.147a8.86 8.86 0 01-3.3-3.238c-.801-1.393-1.202-2.957-1.202-4.69 0-1.734.401-3.289 1.202-4.665a8.669 8.669 0 013.3-3.212c1.398-.782 2.924-1.173 4.578-1.173 1.672 0 3.198.391 4.579 1.173a8.437 8.437 0 013.3 3.212c.801 1.376 1.202 2.931 1.202 4.665 0 1.733-.401 3.297-1.202 4.69a8.619 8.619 0 01-3.3 3.238c-1.381.764-2.907 1.147-4.579 1.147zm0-2.524c1.177 0 2.226-.263 3.147-.79a5.594 5.594 0 002.148-2.294c.529-1.003.793-2.159.793-3.467 0-1.309-.264-2.456-.793-3.442-.511-.985-1.228-1.742-2.148-2.268-.921-.527-1.97-.79-3.147-.79-1.176 0-2.225.263-3.146.79-.921.526-1.645 1.283-2.174 2.268-.511.986-.767 2.133-.767 3.442 0 1.308.256 2.464.767 3.466.529.986 1.253 1.751 2.174 2.295.921.527 1.97.79 3.146.79zm26.555 2.345h-2.915l-8.774-13.23v13.23h-2.916V58.09h2.916l8.774 13.204V58.091h2.915v17.742zm9.687.179c-1.194 0-2.268-.204-3.223-.612-.955-.425-1.705-1.02-2.251-1.785-.545-.764-.818-1.656-.818-2.676h3.12c.069.765.367 1.393.896 1.886.545.493 1.304.74 2.276.74 1.006 0 1.791-.238 2.353-.714.563-.493.844-1.122.844-1.887 0-.594-.179-1.079-.537-1.453a3.38 3.38 0 00-1.304-.866c-.512-.204-1.228-.425-2.149-.663-1.159-.306-2.106-.612-2.839-.918a4.807 4.807 0 01-1.842-1.478c-.511-.663-.767-1.547-.767-2.651 0-1.02.256-1.912.767-2.677.512-.765 1.228-1.351 2.149-1.759.921-.408 1.986-.612 3.197-.612 1.722 0 3.129.434 4.221 1.3 1.108.85 1.722 2.023 1.841 3.518h-3.223c-.051-.646-.358-1.198-.92-1.657-.563-.459-1.305-.688-2.226-.688-.835 0-1.517.212-2.046.637-.529.425-.793 1.037-.793 1.836 0 .543.162.994.486 1.35.341.34.767.612 1.279.816.512.204 1.211.425 2.097.663 1.177.323 2.132.646 2.865.969.75.323 1.381.824 1.893 1.504.529.663.793 1.555.793 2.676 0 .901-.247 1.75-.742 2.55-.477.798-1.185 1.444-2.123 1.937-.921.476-2.012.714-3.274.714zM46.361 22.305c0-2.933 2.386-5.31 5.329-5.31h21.315c1.567 0 2.975.672 3.95 1.744l27.871 27.777a5.288 5.288 0 011.751 3.936v21.243c0 2.933-2.386 5.31-5.329 5.31H79.933c-1.68 0-3.18-.775-4.156-1.986L52.833 52.153c-1.423-1.066-3.535-.18-3.701 1.65l-.106 1.163v16.729c0 2.933-2.386 5.31-5.33 5.31H22.382c-2.943 0-5.329-2.377-5.329-5.31V50.452c0-2.933 2.386-5.311 5.33-5.311H40.5c3.127 0 5.698-2.458 5.829-5.571l.033-.802V22.305z" fill="#fff"/></svg>